<mxfile host="app.diagrams.net" agent="Mozilla/5.0 (Windows NT 10.0; Win64; x64) AppleWebKit/537.36 (KHTML, like Gecko) Chrome/128.0.0.0 Safari/537.36" version="24.7.14">
  <diagram name="Página-1" id="ra6LBf487d78xDgZV6q5">
    <mxGraphModel dx="2514" dy="962" grid="1" gridSize="10" guides="1" tooltips="1" connect="1" arrows="1" fold="1" page="1" pageScale="1" pageWidth="827" pageHeight="1169" math="0" shadow="0">
      <root>
        <mxCell id="0" />
        <mxCell id="1" parent="0" />
        <mxCell id="xbcK603fxj20vIpNpQ2O-2" value="Inicio" style="ellipse;whiteSpace=wrap;html=1;" vertex="1" parent="1">
          <mxGeometry x="-441" y="60" width="90" height="60" as="geometry" />
        </mxCell>
        <mxCell id="xbcK603fxj20vIpNpQ2O-7" style="edgeStyle=orthogonalEdgeStyle;rounded=0;orthogonalLoop=1;jettySize=auto;html=1;entryX=0.008;entryY=0.4;entryDx=0;entryDy=0;entryPerimeter=0;" edge="1" parent="1" source="xbcK603fxj20vIpNpQ2O-6" target="xbcK603fxj20vIpNpQ2O-27">
          <mxGeometry relative="1" as="geometry">
            <mxPoint x="-280" y="275" as="targetPoint" />
          </mxGeometry>
        </mxCell>
        <mxCell id="xbcK603fxj20vIpNpQ2O-9" style="edgeStyle=orthogonalEdgeStyle;rounded=0;orthogonalLoop=1;jettySize=auto;html=1;entryX=0.5;entryY=0;entryDx=0;entryDy=0;" edge="1" parent="1" source="xbcK603fxj20vIpNpQ2O-6" target="xbcK603fxj20vIpNpQ2O-10">
          <mxGeometry relative="1" as="geometry">
            <mxPoint x="-396" y="340" as="targetPoint" />
            <Array as="points">
              <mxPoint x="-396" y="325" />
              <mxPoint x="-395" y="325" />
            </Array>
          </mxGeometry>
        </mxCell>
        <mxCell id="xbcK603fxj20vIpNpQ2O-6" value="escolher opção&lt;div&gt;1&lt;/div&gt;" style="rhombus;whiteSpace=wrap;html=1;" vertex="1" parent="1">
          <mxGeometry x="-436" y="300" width="80" height="80" as="geometry" />
        </mxCell>
        <mxCell id="xbcK603fxj20vIpNpQ2O-12" style="edgeStyle=orthogonalEdgeStyle;rounded=0;orthogonalLoop=1;jettySize=auto;html=1;entryX=0;entryY=0.25;entryDx=0;entryDy=0;" edge="1" parent="1" source="xbcK603fxj20vIpNpQ2O-10" target="xbcK603fxj20vIpNpQ2O-34">
          <mxGeometry relative="1" as="geometry">
            <mxPoint x="-260" y="410" as="targetPoint" />
          </mxGeometry>
        </mxCell>
        <mxCell id="xbcK603fxj20vIpNpQ2O-14" style="edgeStyle=orthogonalEdgeStyle;rounded=0;orthogonalLoop=1;jettySize=auto;html=1;entryX=0.5;entryY=0;entryDx=0;entryDy=0;" edge="1" parent="1" source="xbcK603fxj20vIpNpQ2O-10" target="xbcK603fxj20vIpNpQ2O-13">
          <mxGeometry relative="1" as="geometry" />
        </mxCell>
        <mxCell id="xbcK603fxj20vIpNpQ2O-10" value="escolher opção&lt;div&gt;2&lt;/div&gt;" style="rhombus;whiteSpace=wrap;html=1;" vertex="1" parent="1">
          <mxGeometry x="-436" y="460" width="80" height="80" as="geometry" />
        </mxCell>
        <mxCell id="xbcK603fxj20vIpNpQ2O-16" style="edgeStyle=orthogonalEdgeStyle;rounded=0;orthogonalLoop=1;jettySize=auto;html=1;entryX=0;entryY=0.25;entryDx=0;entryDy=0;" edge="1" parent="1" source="xbcK603fxj20vIpNpQ2O-13" target="xbcK603fxj20vIpNpQ2O-35">
          <mxGeometry relative="1" as="geometry">
            <mxPoint x="-260" y="570" as="targetPoint" />
          </mxGeometry>
        </mxCell>
        <mxCell id="xbcK603fxj20vIpNpQ2O-82" style="edgeStyle=orthogonalEdgeStyle;rounded=0;orthogonalLoop=1;jettySize=auto;html=1;" edge="1" parent="1" source="xbcK603fxj20vIpNpQ2O-13" target="xbcK603fxj20vIpNpQ2O-81">
          <mxGeometry relative="1" as="geometry" />
        </mxCell>
        <mxCell id="xbcK603fxj20vIpNpQ2O-13" value="escolher opção&lt;div&gt;3&lt;/div&gt;" style="rhombus;whiteSpace=wrap;html=1;" vertex="1" parent="1">
          <mxGeometry x="-436" y="670" width="80" height="80" as="geometry" />
        </mxCell>
        <mxCell id="xbcK603fxj20vIpNpQ2O-25" value="Fim!" style="ellipse;whiteSpace=wrap;html=1;" vertex="1" parent="1">
          <mxGeometry x="-270" y="990" width="120" height="80" as="geometry" />
        </mxCell>
        <mxCell id="xbcK603fxj20vIpNpQ2O-28" style="edgeStyle=orthogonalEdgeStyle;rounded=0;orthogonalLoop=1;jettySize=auto;html=1;entryX=0.5;entryY=1;entryDx=0;entryDy=0;" edge="1" parent="1" source="xbcK603fxj20vIpNpQ2O-26" target="xbcK603fxj20vIpNpQ2O-2">
          <mxGeometry relative="1" as="geometry" />
        </mxCell>
        <mxCell id="xbcK603fxj20vIpNpQ2O-29" style="edgeStyle=orthogonalEdgeStyle;rounded=0;orthogonalLoop=1;jettySize=auto;html=1;entryX=0.5;entryY=0;entryDx=0;entryDy=0;" edge="1" parent="1" source="xbcK603fxj20vIpNpQ2O-26" target="xbcK603fxj20vIpNpQ2O-6">
          <mxGeometry relative="1" as="geometry" />
        </mxCell>
        <mxCell id="xbcK603fxj20vIpNpQ2O-26" value="Digite um numero" style="shape=parallelogram;perimeter=parallelogramPerimeter;whiteSpace=wrap;html=1;fixedSize=1;" vertex="1" parent="1">
          <mxGeometry x="-460" y="170" width="146" height="60" as="geometry" />
        </mxCell>
        <mxCell id="xbcK603fxj20vIpNpQ2O-38" style="edgeStyle=orthogonalEdgeStyle;rounded=0;orthogonalLoop=1;jettySize=auto;html=1;entryX=0;entryY=0.375;entryDx=0;entryDy=0;entryPerimeter=0;" edge="1" parent="1" source="xbcK603fxj20vIpNpQ2O-27" target="xbcK603fxj20vIpNpQ2O-86">
          <mxGeometry relative="1" as="geometry">
            <mxPoint x="-20" y="150" as="targetPoint" />
          </mxGeometry>
        </mxCell>
        <mxCell id="xbcK603fxj20vIpNpQ2O-27" value="1: Ver o saldo" style="shape=document;whiteSpace=wrap;html=1;boundedLbl=1;" vertex="1" parent="1">
          <mxGeometry x="-230" y="230" width="120" height="80" as="geometry" />
        </mxCell>
        <mxCell id="xbcK603fxj20vIpNpQ2O-44" style="edgeStyle=orthogonalEdgeStyle;rounded=0;orthogonalLoop=1;jettySize=auto;html=1;entryX=0.035;entryY=0.357;entryDx=0;entryDy=0;entryPerimeter=0;" edge="1" parent="1" source="xbcK603fxj20vIpNpQ2O-34" target="xbcK603fxj20vIpNpQ2O-88">
          <mxGeometry relative="1" as="geometry">
            <mxPoint x="-20" y="360" as="targetPoint" />
          </mxGeometry>
        </mxCell>
        <mxCell id="xbcK603fxj20vIpNpQ2O-34" value="2: Depositar" style="shape=document;whiteSpace=wrap;html=1;boundedLbl=1;" vertex="1" parent="1">
          <mxGeometry x="-220" y="400" width="120" height="80" as="geometry" />
        </mxCell>
        <mxCell id="xbcK603fxj20vIpNpQ2O-56" style="edgeStyle=orthogonalEdgeStyle;rounded=0;orthogonalLoop=1;jettySize=auto;html=1;entryX=0;entryY=0.5;entryDx=0;entryDy=0;" edge="1" parent="1" source="xbcK603fxj20vIpNpQ2O-35" target="xbcK603fxj20vIpNpQ2O-55">
          <mxGeometry relative="1" as="geometry" />
        </mxCell>
        <mxCell id="xbcK603fxj20vIpNpQ2O-58" style="edgeStyle=orthogonalEdgeStyle;rounded=0;orthogonalLoop=1;jettySize=auto;html=1;entryX=0;entryY=0.5;entryDx=0;entryDy=0;" edge="1" parent="1" source="xbcK603fxj20vIpNpQ2O-35" target="xbcK603fxj20vIpNpQ2O-57">
          <mxGeometry relative="1" as="geometry" />
        </mxCell>
        <mxCell id="xbcK603fxj20vIpNpQ2O-60" style="edgeStyle=orthogonalEdgeStyle;rounded=0;orthogonalLoop=1;jettySize=auto;html=1;entryX=0;entryY=0.75;entryDx=0;entryDy=0;" edge="1" parent="1" source="xbcK603fxj20vIpNpQ2O-35" target="xbcK603fxj20vIpNpQ2O-59">
          <mxGeometry relative="1" as="geometry" />
        </mxCell>
        <mxCell id="xbcK603fxj20vIpNpQ2O-35" value="3: Sacar" style="shape=document;whiteSpace=wrap;html=1;boundedLbl=1;" vertex="1" parent="1">
          <mxGeometry x="-200" y="570" width="120" height="80" as="geometry" />
        </mxCell>
        <mxCell id="xbcK603fxj20vIpNpQ2O-52" style="edgeStyle=orthogonalEdgeStyle;rounded=0;orthogonalLoop=1;jettySize=auto;html=1;" edge="1" parent="1" source="xbcK603fxj20vIpNpQ2O-39" target="xbcK603fxj20vIpNpQ2O-50">
          <mxGeometry relative="1" as="geometry" />
        </mxCell>
        <mxCell id="xbcK603fxj20vIpNpQ2O-39" value="Adicionar Valor ao Saldo" style="rounded=1;whiteSpace=wrap;html=1;" vertex="1" parent="1">
          <mxGeometry x="-20" y="410" width="120" height="60" as="geometry" />
        </mxCell>
        <mxCell id="xbcK603fxj20vIpNpQ2O-40" style="edgeStyle=orthogonalEdgeStyle;rounded=0;orthogonalLoop=1;jettySize=auto;html=1;entryX=0.025;entryY=0.367;entryDx=0;entryDy=0;entryPerimeter=0;" edge="1" parent="1" source="xbcK603fxj20vIpNpQ2O-34" target="xbcK603fxj20vIpNpQ2O-39">
          <mxGeometry relative="1" as="geometry" />
        </mxCell>
        <mxCell id="xbcK603fxj20vIpNpQ2O-53" style="edgeStyle=orthogonalEdgeStyle;rounded=0;orthogonalLoop=1;jettySize=auto;html=1;entryX=0.5;entryY=1;entryDx=0;entryDy=0;" edge="1" parent="1" source="xbcK603fxj20vIpNpQ2O-41" target="xbcK603fxj20vIpNpQ2O-50">
          <mxGeometry relative="1" as="geometry" />
        </mxCell>
        <mxCell id="xbcK603fxj20vIpNpQ2O-41" value="Solicitar valor do deposito" style="rounded=1;whiteSpace=wrap;html=1;" vertex="1" parent="1">
          <mxGeometry x="-20" y="490" width="120" height="60" as="geometry" />
        </mxCell>
        <mxCell id="xbcK603fxj20vIpNpQ2O-42" style="edgeStyle=orthogonalEdgeStyle;rounded=0;orthogonalLoop=1;jettySize=auto;html=1;entryX=-0.008;entryY=0.617;entryDx=0;entryDy=0;entryPerimeter=0;" edge="1" parent="1" source="xbcK603fxj20vIpNpQ2O-34" target="xbcK603fxj20vIpNpQ2O-41">
          <mxGeometry relative="1" as="geometry" />
        </mxCell>
        <mxCell id="xbcK603fxj20vIpNpQ2O-51" style="edgeStyle=orthogonalEdgeStyle;rounded=0;orthogonalLoop=1;jettySize=auto;html=1;entryX=0.5;entryY=0;entryDx=0;entryDy=0;exitX=1;exitY=0.5;exitDx=0;exitDy=0;" edge="1" parent="1" source="xbcK603fxj20vIpNpQ2O-88" target="xbcK603fxj20vIpNpQ2O-50">
          <mxGeometry relative="1" as="geometry">
            <mxPoint x="100" y="360" as="sourcePoint" />
          </mxGeometry>
        </mxCell>
        <mxCell id="xbcK603fxj20vIpNpQ2O-49" style="edgeStyle=orthogonalEdgeStyle;rounded=0;orthogonalLoop=1;jettySize=auto;html=1;entryX=1;entryY=0.5;entryDx=0;entryDy=0;exitX=1;exitY=0.5;exitDx=0;exitDy=0;" edge="1" parent="1" source="xbcK603fxj20vIpNpQ2O-46" target="xbcK603fxj20vIpNpQ2O-2">
          <mxGeometry relative="1" as="geometry">
            <mxPoint x="80" y="190" as="sourcePoint" />
            <mxPoint x="-250" y="10" as="targetPoint" />
          </mxGeometry>
        </mxCell>
        <mxCell id="xbcK603fxj20vIpNpQ2O-46" value="Retornar ao menu" style="rounded=1;whiteSpace=wrap;html=1;" vertex="1" parent="1">
          <mxGeometry x="-20" y="220" width="120" height="60" as="geometry" />
        </mxCell>
        <mxCell id="xbcK603fxj20vIpNpQ2O-54" style="edgeStyle=orthogonalEdgeStyle;rounded=0;orthogonalLoop=1;jettySize=auto;html=1;entryX=0.978;entryY=0.25;entryDx=0;entryDy=0;entryPerimeter=0;" edge="1" parent="1" source="xbcK603fxj20vIpNpQ2O-50" target="xbcK603fxj20vIpNpQ2O-2">
          <mxGeometry relative="1" as="geometry">
            <mxPoint x="340" y="50" as="targetPoint" />
            <Array as="points">
              <mxPoint x="341" y="440" />
              <mxPoint x="341" y="75" />
            </Array>
          </mxGeometry>
        </mxCell>
        <mxCell id="xbcK603fxj20vIpNpQ2O-50" value="Retornar ao menu" style="rounded=1;whiteSpace=wrap;html=1;" vertex="1" parent="1">
          <mxGeometry x="160" y="410" width="120" height="60" as="geometry" />
        </mxCell>
        <mxCell id="xbcK603fxj20vIpNpQ2O-91" style="edgeStyle=orthogonalEdgeStyle;rounded=0;orthogonalLoop=1;jettySize=auto;html=1;entryX=0.5;entryY=0;entryDx=0;entryDy=0;" edge="1" parent="1" source="xbcK603fxj20vIpNpQ2O-55" target="xbcK603fxj20vIpNpQ2O-68">
          <mxGeometry relative="1" as="geometry" />
        </mxCell>
        <mxCell id="xbcK603fxj20vIpNpQ2O-55" value="Solicitar valor do Saque" style="rounded=1;whiteSpace=wrap;html=1;" vertex="1" parent="1">
          <mxGeometry x="-20" y="570" width="120" height="60" as="geometry" />
        </mxCell>
        <mxCell id="xbcK603fxj20vIpNpQ2O-57" value="Adicionar valor ao saldo" style="rounded=1;whiteSpace=wrap;html=1;" vertex="1" parent="1">
          <mxGeometry x="-20" y="650" width="120" height="60" as="geometry" />
        </mxCell>
        <mxCell id="xbcK603fxj20vIpNpQ2O-62" style="edgeStyle=orthogonalEdgeStyle;rounded=0;orthogonalLoop=1;jettySize=auto;html=1;entryX=0;entryY=0.5;entryDx=0;entryDy=0;" edge="1" parent="1" source="xbcK603fxj20vIpNpQ2O-59" target="xbcK603fxj20vIpNpQ2O-61">
          <mxGeometry relative="1" as="geometry" />
        </mxCell>
        <mxCell id="xbcK603fxj20vIpNpQ2O-59" value="Verificar se o valor está disponível no saldo" style="rounded=1;whiteSpace=wrap;html=1;" vertex="1" parent="1">
          <mxGeometry x="-20" y="730" width="120" height="60" as="geometry" />
        </mxCell>
        <mxCell id="xbcK603fxj20vIpNpQ2O-64" style="edgeStyle=orthogonalEdgeStyle;rounded=0;orthogonalLoop=1;jettySize=auto;html=1;entryX=0;entryY=0.5;entryDx=0;entryDy=0;" edge="1" parent="1" source="xbcK603fxj20vIpNpQ2O-61" target="xbcK603fxj20vIpNpQ2O-63">
          <mxGeometry relative="1" as="geometry" />
        </mxCell>
        <mxCell id="xbcK603fxj20vIpNpQ2O-67" style="edgeStyle=orthogonalEdgeStyle;rounded=0;orthogonalLoop=1;jettySize=auto;html=1;entryX=0;entryY=0.5;entryDx=0;entryDy=0;" edge="1" parent="1" source="xbcK603fxj20vIpNpQ2O-61" target="xbcK603fxj20vIpNpQ2O-65">
          <mxGeometry relative="1" as="geometry" />
        </mxCell>
        <mxCell id="xbcK603fxj20vIpNpQ2O-61" value="verifica saldo" style="rhombus;whiteSpace=wrap;html=1;" vertex="1" parent="1">
          <mxGeometry x="180" y="720" width="80" height="80" as="geometry" />
        </mxCell>
        <mxCell id="xbcK603fxj20vIpNpQ2O-69" style="edgeStyle=orthogonalEdgeStyle;rounded=0;orthogonalLoop=1;jettySize=auto;html=1;entryX=-0.016;entryY=0.49;entryDx=0;entryDy=0;entryPerimeter=0;" edge="1" parent="1" source="xbcK603fxj20vIpNpQ2O-63" target="xbcK603fxj20vIpNpQ2O-68">
          <mxGeometry relative="1" as="geometry" />
        </mxCell>
        <mxCell id="xbcK603fxj20vIpNpQ2O-63" value="se sim, tire o valor atual e efetuar o saque" style="rounded=1;whiteSpace=wrap;html=1;" vertex="1" parent="1">
          <mxGeometry x="320" y="660" width="120" height="60" as="geometry" />
        </mxCell>
        <mxCell id="xbcK603fxj20vIpNpQ2O-65" value="Se não, mostrar mensagem de saldo insuficiente" style="rounded=1;whiteSpace=wrap;html=1;" vertex="1" parent="1">
          <mxGeometry x="320" y="810" width="120" height="60" as="geometry" />
        </mxCell>
        <mxCell id="xbcK603fxj20vIpNpQ2O-68" value="retornar ao menu" style="rounded=1;whiteSpace=wrap;html=1;" vertex="1" parent="1">
          <mxGeometry x="510" y="720" width="120" height="60" as="geometry" />
        </mxCell>
        <mxCell id="xbcK603fxj20vIpNpQ2O-74" style="edgeStyle=orthogonalEdgeStyle;rounded=0;orthogonalLoop=1;jettySize=auto;html=1;entryX=0;entryY=0.5;entryDx=0;entryDy=0;" edge="1" parent="1" source="xbcK603fxj20vIpNpQ2O-72" target="xbcK603fxj20vIpNpQ2O-68">
          <mxGeometry relative="1" as="geometry" />
        </mxCell>
        <mxCell id="xbcK603fxj20vIpNpQ2O-72" value="Saldo insuficiente!" style="shape=document;whiteSpace=wrap;html=1;boundedLbl=1;" vertex="1" parent="1">
          <mxGeometry x="334" y="910" width="120" height="80" as="geometry" />
        </mxCell>
        <mxCell id="xbcK603fxj20vIpNpQ2O-73" style="edgeStyle=orthogonalEdgeStyle;rounded=0;orthogonalLoop=1;jettySize=auto;html=1;entryX=0.392;entryY=0;entryDx=0;entryDy=0;entryPerimeter=0;" edge="1" parent="1" source="xbcK603fxj20vIpNpQ2O-65" target="xbcK603fxj20vIpNpQ2O-72">
          <mxGeometry relative="1" as="geometry" />
        </mxCell>
        <mxCell id="xbcK603fxj20vIpNpQ2O-80" style="edgeStyle=orthogonalEdgeStyle;rounded=0;orthogonalLoop=1;jettySize=auto;html=1;entryX=0.967;entryY=0.372;entryDx=0;entryDy=0;entryPerimeter=0;exitX=1;exitY=0.5;exitDx=0;exitDy=0;" edge="1" parent="1" source="xbcK603fxj20vIpNpQ2O-68" target="xbcK603fxj20vIpNpQ2O-2">
          <mxGeometry relative="1" as="geometry">
            <mxPoint x="-330" y="79.19" as="targetPoint" />
            <mxPoint x="640" y="750" as="sourcePoint" />
            <Array as="points">
              <mxPoint x="654" y="750" />
              <mxPoint x="654" y="444" />
              <mxPoint x="364" y="444" />
              <mxPoint x="364" y="79" />
              <mxPoint x="-354" y="79" />
            </Array>
          </mxGeometry>
        </mxCell>
        <mxCell id="xbcK603fxj20vIpNpQ2O-81" value="escolher opção&lt;div&gt;4&lt;/div&gt;" style="rhombus;whiteSpace=wrap;html=1;" vertex="1" parent="1">
          <mxGeometry x="-436" y="830" width="80" height="80" as="geometry" />
        </mxCell>
        <mxCell id="xbcK603fxj20vIpNpQ2O-85" style="edgeStyle=orthogonalEdgeStyle;rounded=0;orthogonalLoop=1;jettySize=auto;html=1;" edge="1" parent="1" source="xbcK603fxj20vIpNpQ2O-83" target="xbcK603fxj20vIpNpQ2O-25">
          <mxGeometry relative="1" as="geometry" />
        </mxCell>
        <mxCell id="xbcK603fxj20vIpNpQ2O-83" value="Deseja Sair" style="shape=document;whiteSpace=wrap;html=1;boundedLbl=1;" vertex="1" parent="1">
          <mxGeometry x="-260" y="840" width="120" height="80" as="geometry" />
        </mxCell>
        <mxCell id="xbcK603fxj20vIpNpQ2O-84" style="edgeStyle=orthogonalEdgeStyle;rounded=0;orthogonalLoop=1;jettySize=auto;html=1;entryX=-0.008;entryY=0.439;entryDx=0;entryDy=0;entryPerimeter=0;" edge="1" parent="1" source="xbcK603fxj20vIpNpQ2O-81" target="xbcK603fxj20vIpNpQ2O-83">
          <mxGeometry relative="1" as="geometry" />
        </mxCell>
        <mxCell id="xbcK603fxj20vIpNpQ2O-87" style="edgeStyle=orthogonalEdgeStyle;rounded=0;orthogonalLoop=1;jettySize=auto;html=1;" edge="1" parent="1" source="xbcK603fxj20vIpNpQ2O-86" target="xbcK603fxj20vIpNpQ2O-46">
          <mxGeometry relative="1" as="geometry" />
        </mxCell>
        <mxCell id="xbcK603fxj20vIpNpQ2O-86" value="Exibir o Saldo atual" style="shape=document;whiteSpace=wrap;html=1;boundedLbl=1;" vertex="1" parent="1">
          <mxGeometry x="-20" y="100" width="120" height="80" as="geometry" />
        </mxCell>
        <mxCell id="xbcK603fxj20vIpNpQ2O-88" value="Mostrar Confirmação do depósito" style="shape=document;whiteSpace=wrap;html=1;boundedLbl=1;" vertex="1" parent="1">
          <mxGeometry x="-10" y="320" width="120" height="80" as="geometry" />
        </mxCell>
        <mxCell id="xbcK603fxj20vIpNpQ2O-92" style="edgeStyle=orthogonalEdgeStyle;rounded=0;orthogonalLoop=1;jettySize=auto;html=1;entryX=0.898;entryY=0.025;entryDx=0;entryDy=0;entryPerimeter=0;" edge="1" parent="1" target="xbcK603fxj20vIpNpQ2O-68">
          <mxGeometry relative="1" as="geometry">
            <mxPoint x="92" y="652" as="sourcePoint" />
            <mxPoint x="618.96" y="691.5000000000002" as="targetPoint" />
          </mxGeometry>
        </mxCell>
      </root>
    </mxGraphModel>
  </diagram>
</mxfile>
